<svg width="233" height="254" viewBox="0 0 233 254" fill="none" xmlns="http://www.w3.org/2000/svg">
<path d="M232.25 182.155C232.25 203.97 224.755 221.398 209.764 234.439C194.895 247.48 174.055 254 147.242 254H0.809326V0.621826H123.294C139.137 0.621826 152.909 2.14526 164.609 5.19214C176.431 8.23901 185.937 12.4437 193.128 17.8062C200.319 23.0468 205.681 29.2625 209.216 36.4531C212.75 43.6437 214.517 51.5046 214.517 60.0359C214.517 69.2984 212.689 77.8906 209.033 85.8124C205.376 93.6124 200.806 100.072 195.322 105.191C189.959 110.187 184.536 113.722 179.051 115.794C196.358 122.619 209.52 131.272 218.539 141.753C227.68 152.112 232.25 165.58 232.25 182.155ZM143.037 73.564C143.037 61.3765 139.016 53.2718 130.972 49.25C122.928 45.2281 110.375 43.2171 93.3124 43.2171H77.2249V103.911H93.6781C111.106 103.911 123.659 101.9 131.337 97.8781C139.137 93.8562 143.037 85.7515 143.037 73.564ZM155.469 179.047C155.469 157.353 139.747 146.506 108.303 146.506H77.2249V211.405H108.303C139.747 211.405 155.469 200.619 155.469 179.047Z" fill="#D9D9D9"/>
</svg>
